<svg width="236" height="172" viewBox="0 0 236 172" fill="none" xmlns="http://www.w3.org/2000/svg">
<path d="M40.47 25.285C39.6267 24.405 39.205 23.36 39.205 22.15C39.205 20.94 39.6267 19.9133 40.47 19.07C41.35 18.19 42.395 17.75 43.605 17.75C44.815 17.75 45.8417 18.19 46.685 19.07C47.565 19.9133 48.005 20.94 48.005 22.15C48.005 23.36 47.565 24.405 46.685 25.285C45.8417 26.1283 44.815 26.55 43.605 26.55C42.395 26.55 41.35 26.1283 40.47 25.285ZM42.56 30.675C46.0067 30.675 47.73 32.16 47.73 35.13V52.895C47.73 53.885 47.9683 54.6733 48.445 55.26C48.9217 55.81 49.655 56.085 50.645 56.085C51.635 56.085 52.7717 55.5533 54.055 54.49L55.045 55.81C52.1117 58.4867 49.1783 59.825 46.245 59.825C41.735 59.825 39.48 57.13 39.48 51.74V33.315C37.4633 33.8283 35.9233 34.7267 34.86 36.01L33.375 34.305C34.4383 33.205 35.7767 32.325 37.39 31.665C39.04 31.005 40.7633 30.675 42.56 30.675ZM86.8028 20.28V52.895C86.8028 53.885 87.0411 54.6733 87.5178 55.26C87.9944 55.81 88.6728 56.085 89.5528 56.085C90.4694 56.085 91.5694 55.5533 92.8528 54.49L94.1178 55.81C91.1844 58.4867 88.2511 59.825 85.3178 59.825C81.8344 59.825 79.6894 58.1933 78.8828 54.93C76.9761 58.1933 74.1711 59.825 70.4678 59.825C66.2511 59.825 63.0428 58.4683 60.8428 55.755C58.6428 53.005 57.5428 49.5217 57.5428 45.305C57.5428 41.0517 58.7161 37.55 61.0628 34.8C63.4461 32.05 66.7644 30.675 71.0178 30.675C74.2811 30.675 76.7928 31.9767 78.5528 34.58V19.565C76.5361 20.0783 74.9961 20.9767 73.9328 22.26L72.4478 20.555C73.5111 19.455 74.8494 18.575 76.4628 17.915C78.1128 17.255 79.7261 16.925 81.3028 16.925C82.9161 16.925 84.2361 17.255 85.2628 17.915C86.2894 18.5383 86.8028 19.3267 86.8028 20.28ZM67.6078 36.89C66.5811 38.9433 66.0678 41.73 66.0678 45.25C66.0678 48.77 66.5811 51.5567 67.6078 53.61C68.6344 55.6633 70.1928 56.69 72.2828 56.69C74.4094 56.69 76.0228 55.6633 77.1228 53.61C78.2594 51.52 78.8278 48.7333 78.8278 45.25C78.8278 41.7667 78.2594 38.9983 77.1228 36.945C76.0228 34.855 74.4094 33.81 72.2828 33.81C70.1928 33.81 68.6344 34.8367 67.6078 36.89ZM100.606 55.645C97.929 52.8217 96.5906 49.3567 96.5906 45.25C96.5906 41.1433 97.929 37.6967 100.606 34.91C103.319 32.0867 106.839 30.675 111.166 30.675C115.492 30.675 118.994 32.0867 121.671 34.91C124.384 37.6967 125.741 41.1433 125.741 45.25C125.741 49.3567 124.384 52.8217 121.671 55.645C118.994 58.4317 115.492 59.825 111.166 59.825C106.839 59.825 103.319 58.4317 100.606 55.645ZM106.656 36.45C105.629 38.7233 105.116 41.6567 105.116 45.25C105.116 48.8433 105.629 51.795 106.656 54.105C107.682 56.3783 109.204 57.515 111.221 57.515C113.237 57.515 114.759 56.3783 115.786 54.105C116.812 51.795 117.326 48.8433 117.326 45.25C117.326 41.6567 116.812 38.7233 115.786 36.45C114.759 34.14 113.237 32.985 111.221 32.985C109.204 32.985 107.682 34.14 106.656 36.45ZM143.679 20.28V34.525C145.659 31.9583 148.703 30.675 152.809 30.675C155.156 30.675 157.063 31.2617 158.529 32.435C159.996 33.6083 160.729 35.0933 160.729 36.89C160.729 38.65 160.198 40.2267 159.134 41.62C158.071 43.0133 156.623 44.15 154.789 45.03L158.089 53.61C158.456 54.5633 158.823 55.2233 159.189 55.59C159.556 55.92 160.069 56.085 160.729 56.085C161.939 56.085 163.186 55.5533 164.469 54.49L165.459 55.81C162.526 58.4867 159.483 59.825 156.329 59.825C153.213 59.825 151.141 58.505 150.114 55.865L145.989 45.305C148.006 44.8283 149.674 43.8383 150.994 42.335C152.351 40.8317 153.029 39.3833 153.029 37.99C153.029 36.5967 152.681 35.5883 151.984 34.965C151.288 34.3417 150.408 34.03 149.344 34.03C147.584 34.03 146.191 34.745 145.164 36.175C144.174 37.5683 143.679 39.4933 143.679 41.95V59H135.429V19.565C133.413 20.0783 131.873 20.9767 130.809 22.26L129.324 20.555C130.388 19.455 131.726 18.575 133.339 17.915C134.989 17.255 136.603 16.925 138.179 16.925C139.793 16.925 141.113 17.255 142.139 17.915C143.166 18.5383 143.679 19.3267 143.679 20.28ZM172.525 55.645C169.848 52.8217 168.51 49.3567 168.51 45.25C168.51 41.1433 169.848 37.6967 172.525 34.91C175.238 32.0867 178.758 30.675 183.085 30.675C187.411 30.675 190.913 32.0867 193.59 34.91C196.303 37.6967 197.66 41.1433 197.66 45.25C197.66 49.3567 196.303 52.8217 193.59 55.645C190.913 58.4317 187.411 59.825 183.085 59.825C178.758 59.825 175.238 58.4317 172.525 55.645ZM178.575 36.45C177.548 38.7233 177.035 41.6567 177.035 45.25C177.035 48.8433 177.548 51.795 178.575 54.105C179.601 56.3783 181.123 57.515 183.14 57.515C185.156 57.515 186.678 56.3783 187.705 54.105C188.731 51.795 189.245 48.8433 189.245 45.25C189.245 41.6567 188.731 38.7233 187.705 36.45C186.678 34.14 185.156 32.985 183.14 32.985C181.123 32.985 179.601 34.14 178.575 36.45Z" fill="#0BCE5A"/>
<path d="M21.7553 102.476C22.9349 103.486 24.151 103.898 25.4037 103.714C26.6886 103.529 27.6727 103.034 28.3558 102.229C29.0545 101.405 29.4231 100.601 29.4614 99.8178C29.5165 99.0513 29.2097 98.3236 28.5411 97.6347C27.8893 96.9631 26.8277 96.8296 25.3565 97.2345C23.8852 97.6393 22.4199 98.7018 20.9603 100.422C19.5008 102.142 18.6127 103.817 18.2959 105.446C17.9792 107.074 18.3474 108.431 19.4004 109.516C21.005 111.17 22.9495 111.887 25.2339 111.668L25.5167 112.886C24.11 113.288 22.6824 113.309 21.234 112.949C19.8011 112.57 18.4996 111.778 17.3296 110.572C15.3405 108.523 14.3582 106.173 14.3825 103.523C14.4224 100.854 15.3041 98.5041 17.0276 96.4728C18.751 94.4414 20.8218 93.3853 23.24 93.3044C25.6903 93.2225 28.0354 94.3354 30.2752 96.6432C31.7461 98.1588 32.5811 99.7223 32.7802 101.334C32.9794 102.945 32.5898 104.327 31.6116 105.48C30.6335 106.633 29.2571 107.222 27.4826 107.245C25.7404 107.268 24.1088 106.496 22.5877 104.929C22.0696 104.395 21.6225 103.814 21.2464 103.186L21.7553 102.476Z" fill="#0BCE5A"/>
<path d="M37.6474 109.21C38.7195 109.376 39.7531 109.773 40.7482 110.4C41.7636 111.039 42.53 111.691 43.0473 112.356C43.5848 113.034 44.0654 113.874 44.4889 114.875C45.6178 114.569 46.6352 114.503 47.5413 114.678C48.4787 114.844 49.4653 115.254 50.501 115.906C52.5725 117.211 53.5225 118.911 53.3512 121.008C54.6183 120.591 55.7418 120.45 56.7216 120.587C57.7328 120.715 58.8781 121.182 60.1575 121.988C61.4573 122.806 62.2821 123.891 62.6322 125.242C63.0136 126.584 62.8287 127.98 62.0774 129.429L57.8182 137.642C57.5199 138.217 57.4143 138.759 57.5015 139.266C57.5998 139.752 57.9231 140.167 58.4714 140.513C59.0197 140.858 59.8095 140.945 60.8407 140.775L60.9913 141.888C58.5601 142.42 56.5321 142.174 54.9075 141.151C52.4096 139.578 51.9727 137.225 53.5969 134.093L57.8561 125.88C58.1986 125.22 58.281 124.593 58.1033 124.001C57.9256 123.408 57.5118 122.907 56.8619 122.498C56.2324 122.102 55.4537 121.993 54.5258 122.172C53.6182 122.363 52.9269 122.917 52.4518 123.833L46.5353 135.242L41.966 132.365L48.4128 119.933C48.7553 119.272 48.8377 118.646 48.66 118.053C48.4823 117.461 48.0685 116.96 47.4187 116.551C46.7891 116.154 46.0104 116.046 45.0825 116.224C44.175 116.416 43.4837 116.97 43.0086 117.886L37.092 129.295L32.5227 126.417L40.1463 111.716C39.2324 111.141 38.3372 110.789 37.4607 110.661L37.6474 109.21Z" fill="#0BCE5A"/>
<path d="M70.6725 127.958C71.7622 127.8 72.8754 127.872 74.0121 128.173C75.1721 128.48 76.0926 128.873 76.7735 129.351C77.4777 129.836 78.1693 130.49 78.8482 131.315C79.8676 130.692 80.8423 130.33 81.7723 130.23C82.7306 130.111 83.8013 130.209 84.9845 130.523C87.3508 131.15 88.7288 132.482 89.1185 134.52C90.2432 133.752 91.3015 133.288 92.2933 133.129C93.3133 132.953 94.5541 133.059 96.0157 133.446C97.5004 133.84 98.5929 134.625 99.293 135.803C100.021 136.963 100.212 138.341 99.8637 139.935L97.8912 148.974C97.753 149.608 97.7938 150.152 98.0135 150.607C98.2384 151.038 98.664 151.337 99.2904 151.503C99.9167 151.669 100.71 151.52 101.67 151.055L102.113 152.065C99.8832 153.285 97.8405 153.649 95.9846 153.157C93.1311 152.401 92.0804 150.299 92.8325 146.853L94.805 137.813C94.9636 137.086 94.8777 136.468 94.5471 135.959C94.2165 135.45 93.68 135.097 92.9376 134.9C92.2184 134.709 91.4302 134.835 90.5728 135.278C89.7387 135.726 89.2116 136.455 88.9916 137.463L86.2516 150.02L81.0318 148.636L84.0174 134.954C84.176 134.228 84.09 133.609 83.7594 133.1C83.4288 132.591 82.8924 132.238 82.15 132.041C81.4308 131.851 80.6426 131.976 79.7852 132.419C78.9511 132.868 78.424 133.596 78.204 134.604L75.464 147.161L70.2442 145.778L73.7747 129.598C72.7308 129.322 71.7644 129.252 70.8757 129.388L70.6725 127.958Z" fill="#0BCE5A"/>
<path d="M127.286 136.712L127.415 150.715C127.421 151.363 127.581 151.877 127.897 152.258C128.212 152.614 128.694 152.789 129.342 152.782C129.99 152.775 130.731 152.418 131.564 151.713L132.22 152.57C130.316 154.343 128.404 155.24 126.484 155.262C124.205 155.287 122.791 154.235 122.243 152.105C121.015 154.255 119.189 155.343 116.765 155.37C114.005 155.401 111.897 154.536 110.441 152.776C108.985 150.993 108.244 148.721 108.218 145.961C108.193 143.177 108.94 140.876 110.459 139.059C112.003 137.242 114.166 136.318 116.95 136.287C119.086 136.263 120.738 137.097 121.905 138.788L121.887 136.772L127.286 136.712ZM114.755 140.38C114.096 141.731 113.777 143.559 113.798 145.863C113.819 148.167 114.172 149.987 114.856 151.323C115.54 152.66 116.566 153.32 117.934 153.305C119.326 153.289 120.376 152.606 121.083 151.254C121.815 149.877 122.17 148.049 122.149 145.77C122.128 143.49 121.74 141.682 120.983 140.346C120.251 138.986 119.189 138.314 117.797 138.33C116.429 138.345 115.415 139.028 114.755 140.38Z" fill="#0BCE5A"/>
<path d="M136.676 135.48C138.588 135.011 140.431 135.176 142.207 135.974C142.922 134.91 143.712 134.099 144.578 133.541C145.439 132.959 146.592 132.491 148.037 132.136C149.505 131.776 150.789 131.954 151.888 132.672C153.006 133.361 153.727 134.505 154.05 136.105L155.883 145.173C156.011 145.809 156.265 146.277 156.644 146.579C157.018 146.858 157.52 146.92 158.149 146.765C158.779 146.611 159.432 146.092 160.11 145.21L160.911 145.902C159.393 148.077 157.702 149.394 155.837 149.851C152.97 150.555 151.188 149.178 150.489 145.72L148.656 136.651C148.509 135.922 148.173 135.411 147.649 135.12C147.126 134.829 146.468 134.781 145.675 134.975C144.906 135.164 144.201 135.67 143.56 136.494C142.943 137.312 142.736 138.227 142.941 139.239L145.486 151.836L140.242 153.123L136.962 136.891C135.913 137.149 135.016 137.554 134.272 138.107L133.518 136.922C134.435 136.252 135.488 135.772 136.676 135.48Z" fill="#0BCE5A"/>
<path d="M169.746 128.173L174.47 139.581C174.755 140.269 175.179 140.698 175.743 140.871C176.306 141.043 176.952 140.945 177.681 140.579C178.41 140.212 178.989 139.546 179.418 138.58C179.847 137.614 179.855 136.632 179.442 135.634L174.579 123.893L179.404 121.467L184.762 134.405C185.01 135.004 185.347 135.41 185.772 135.625C186.189 135.817 186.686 135.768 187.265 135.477C187.844 135.186 188.376 134.53 188.86 133.509L189.769 134.017C188.725 136.498 187.312 138.186 185.533 139.081C183.753 139.976 182.234 139.749 180.976 138.399C180.516 139.729 179.914 140.809 179.17 141.639C178.437 142.436 177.374 143.184 175.981 143.885C174.609 144.576 173.315 144.704 172.099 144.271C170.895 143.804 169.981 142.817 169.357 141.309L164.742 130.167C163.692 131.071 163.016 132.067 162.716 133.156L161.42 132.561C161.767 131.583 162.329 130.658 163.107 129.784C163.907 128.9 164.767 128.225 165.689 127.762C166.633 127.287 167.487 127.099 168.253 127.196C169.009 127.271 169.507 127.597 169.746 128.173Z" fill="#0BCE5A"/>
<path d="M198.62 116.939C199.763 115.85 200.382 114.612 200.476 113.226C200.576 111.805 200.337 110.652 199.76 109.768C199.169 108.864 198.529 108.319 197.838 108.135C197.165 107.936 196.453 108.135 195.701 108.731C194.968 109.313 194.63 110.435 194.687 112.097C194.745 113.759 195.391 115.535 196.624 117.424C197.857 119.313 199.168 120.577 200.555 121.215C201.942 121.854 203.228 121.703 204.413 120.764C206.218 119.332 207.259 117.363 207.535 114.857L208.679 114.773C208.748 116.366 208.473 117.911 207.853 119.409C207.219 120.887 206.244 122.148 204.928 123.192C202.69 124.966 200.392 125.599 198.033 125.09C195.662 124.561 193.748 123.182 192.291 120.951C190.835 118.72 190.32 116.292 190.746 113.667C191.178 111.006 192.654 108.677 195.174 106.679C196.829 105.367 198.396 104.75 199.874 104.828C201.352 104.906 202.504 105.579 203.331 106.845C204.158 108.111 204.399 109.704 204.054 111.624C203.715 113.509 202.69 115.13 200.979 116.487C200.396 116.949 199.786 117.326 199.148 117.618L198.62 116.939Z" fill="#0BCE5A"/>
<path d="M199.567 95.8535C199.557 94.8048 199.766 93.7309 200.193 92.6317C200.635 91.5149 201.206 90.5766 201.905 89.817C202.619 89.0396 203.348 88.5645 204.091 88.3917C204.818 88.201 205.39 88.338 205.806 88.8029L220.048 104.706C220.48 105.189 220.93 105.459 221.397 105.515C221.848 105.554 222.293 105.334 222.732 104.857C223.171 104.38 223.442 103.573 223.546 102.437L224.561 102.603C224.431 105.322 223.715 107.388 222.416 108.801C220.418 110.974 218.242 110.746 215.888 108.118L201.839 92.4293C201.17 93.6512 200.88 94.8313 200.969 95.9694L199.567 95.8535Z" fill="#0BCE5A"/>
<path d="M94.704 103.672L68.144 94.968V90.36L94.704 81.784V86.2L72.944 92.6L94.704 99.256V103.672ZM102.408 119.608L120.392 65.72H125.32L107.336 119.608H102.408ZM133.022 103.672V99.256L154.782 92.664L133.022 86.2V81.784L159.582 90.36V94.968L133.022 103.672Z" fill="#0BCE5A"/>
</svg>
