<svg width="235" height="184" viewBox="0 0 235 184" fill="none" xmlns="http://www.w3.org/2000/svg">
<path d="M40.3344 25.285C39.4911 24.405 39.0694 23.36 39.0694 22.15C39.0694 20.94 39.4911 19.9133 40.3344 19.07C41.2144 18.19 42.2594 17.75 43.4694 17.75C44.6794 17.75 45.7061 18.19 46.5494 19.07C47.4294 19.9133 47.8694 20.94 47.8694 22.15C47.8694 23.36 47.4294 24.405 46.5494 25.285C45.7061 26.1283 44.6794 26.55 43.4694 26.55C42.2594 26.55 41.2144 26.1283 40.3344 25.285ZM42.4244 30.675C45.8711 30.675 47.5944 32.16 47.5944 35.13V52.895C47.5944 53.885 47.8327 54.6733 48.3094 55.26C48.7861 55.81 49.5194 56.085 50.5094 56.085C51.4994 56.085 52.6361 55.5533 53.9194 54.49L54.9094 55.81C51.9761 58.4867 49.0427 59.825 46.1094 59.825C41.5994 59.825 39.3444 57.13 39.3444 51.74V33.315C37.3277 33.8283 35.7877 34.7267 34.7244 36.01L33.2394 34.305C34.3027 33.205 35.6411 32.325 37.2544 31.665C38.9044 31.005 40.6277 30.675 42.4244 30.675ZM86.6672 20.28V52.895C86.6672 53.885 86.9055 54.6733 87.3822 55.26C87.8589 55.81 88.5372 56.085 89.4172 56.085C90.3339 56.085 91.4339 55.5533 92.7172 54.49L93.9822 55.81C91.0489 58.4867 88.1155 59.825 85.1822 59.825C81.6989 59.825 79.5539 58.1933 78.7472 54.93C76.8405 58.1933 74.0355 59.825 70.3322 59.825C66.1155 59.825 62.9072 58.4683 60.7072 55.755C58.5072 53.005 57.4072 49.5217 57.4072 45.305C57.4072 41.0517 58.5805 37.55 60.9272 34.8C63.3105 32.05 66.6289 30.675 70.8822 30.675C74.1455 30.675 76.6572 31.9767 78.4172 34.58V19.565C76.4005 20.0783 74.8605 20.9767 73.7972 22.26L72.3122 20.555C73.3755 19.455 74.7139 18.575 76.3272 17.915C77.9772 17.255 79.5905 16.925 81.1672 16.925C82.7805 16.925 84.1005 17.255 85.1272 17.915C86.1539 18.5383 86.6672 19.3267 86.6672 20.28ZM67.4722 36.89C66.4455 38.9433 65.9322 41.73 65.9322 45.25C65.9322 48.77 66.4455 51.5567 67.4722 53.61C68.4989 55.6633 70.0572 56.69 72.1472 56.69C74.2739 56.69 75.8872 55.6633 76.9872 53.61C78.1239 51.52 78.6922 48.7333 78.6922 45.25C78.6922 41.7667 78.1239 38.9983 76.9872 36.945C75.8872 34.855 74.2739 33.81 72.1472 33.81C70.0572 33.81 68.4989 34.8367 67.4722 36.89ZM100.47 55.645C97.7934 52.8217 96.455 49.3567 96.455 45.25C96.455 41.1433 97.7934 37.6967 100.47 34.91C103.183 32.0867 106.703 30.675 111.03 30.675C115.357 30.675 118.858 32.0867 121.535 34.91C124.248 37.6967 125.605 41.1433 125.605 45.25C125.605 49.3567 124.248 52.8217 121.535 55.645C118.858 58.4317 115.357 59.825 111.03 59.825C106.703 59.825 103.183 58.4317 100.47 55.645ZM106.52 36.45C105.493 38.7233 104.98 41.6567 104.98 45.25C104.98 48.8433 105.493 51.795 106.52 54.105C107.547 56.3783 109.068 57.515 111.085 57.515C113.102 57.515 114.623 56.3783 115.65 54.105C116.677 51.795 117.19 48.8433 117.19 45.25C117.19 41.6567 116.677 38.7233 115.65 36.45C114.623 34.14 113.102 32.985 111.085 32.985C109.068 32.985 107.547 34.14 106.52 36.45ZM143.544 20.28V34.525C145.524 31.9583 148.567 30.675 152.674 30.675C155.02 30.675 156.927 31.2617 158.394 32.435C159.86 33.6083 160.594 35.0933 160.594 36.89C160.594 38.65 160.062 40.2267 158.999 41.62C157.935 43.0133 156.487 44.15 154.654 45.03L157.954 53.61C158.32 54.5633 158.687 55.2233 159.054 55.59C159.42 55.92 159.934 56.085 160.594 56.085C161.804 56.085 163.05 55.5533 164.334 54.49L165.324 55.81C162.39 58.4867 159.347 59.825 156.194 59.825C153.077 59.825 151.005 58.505 149.979 55.865L145.854 45.305C147.87 44.8283 149.539 43.8383 150.859 42.335C152.215 40.8317 152.894 39.3833 152.894 37.99C152.894 36.5967 152.545 35.5883 151.849 34.965C151.152 34.3417 150.272 34.03 149.209 34.03C147.449 34.03 146.055 34.745 145.029 36.175C144.039 37.5683 143.544 39.4933 143.544 41.95V59H135.294V19.565C133.277 20.0783 131.737 20.9767 130.674 22.26L129.189 20.555C130.252 19.455 131.59 18.575 133.204 17.915C134.854 17.255 136.467 16.925 138.044 16.925C139.657 16.925 140.977 17.255 142.004 17.915C143.03 18.5383 143.544 19.3267 143.544 20.28ZM172.389 55.645C169.712 52.8217 168.374 49.3567 168.374 45.25C168.374 41.1433 169.712 37.6967 172.389 34.91C175.102 32.0867 178.622 30.675 182.949 30.675C187.276 30.675 190.777 32.0867 193.454 34.91C196.167 37.6967 197.524 41.1433 197.524 45.25C197.524 49.3567 196.167 52.8217 193.454 55.645C190.777 58.4317 187.276 59.825 182.949 59.825C178.622 59.825 175.102 58.4317 172.389 55.645ZM178.439 36.45C177.412 38.7233 176.899 41.6567 176.899 45.25C176.899 48.8433 177.412 51.795 178.439 54.105C179.466 56.3783 180.987 57.515 183.004 57.515C185.021 57.515 186.542 56.3783 187.569 54.105C188.596 51.795 189.109 48.8433 189.109 45.25C189.109 41.6567 188.596 38.7233 187.569 36.45C186.542 34.14 185.021 32.985 183.004 32.985C180.987 32.985 179.466 34.14 178.439 36.45Z" fill="#00DAF4"/>
<path d="M22.1847 108.423C23.3196 109.468 24.4885 109.897 25.6912 109.71C26.9248 109.523 27.8689 109.014 28.5234 108.186C29.1927 107.338 29.545 106.51 29.5802 105.702C29.6316 104.912 29.3354 104.16 28.6919 103.448C28.0645 102.753 27.0447 102.613 25.6325 103.026C24.2204 103.44 22.8152 104.532 21.417 106.302C20.0188 108.073 19.1693 109.798 18.8684 111.477C18.5676 113.156 18.9239 114.556 19.9375 115.678C21.482 117.388 23.351 118.133 25.5445 117.914L25.8186 119.17C24.4683 119.582 23.0973 119.6 21.7055 119.224C20.3286 118.83 19.077 118.009 17.9509 116.762C16.0363 114.643 15.0881 112.217 15.106 109.483C15.1388 106.731 15.9807 104.309 17.6318 102.218C19.2829 100.128 21.2695 99.0439 23.5917 98.967C25.9449 98.889 28.1994 100.043 30.3553 102.43C31.771 103.997 32.5762 105.612 32.7708 107.275C32.9653 108.937 32.5941 110.362 31.657 111.548C30.7199 112.735 29.3992 113.338 27.6951 113.358C26.0219 113.377 24.4532 112.576 22.9892 110.955C22.4905 110.403 22.0599 109.803 21.6974 109.155L22.1847 108.423Z" fill="#00DAF4"/>
<path d="M37.9854 115.756C39.028 115.945 40.0362 116.369 41.0102 117.028C42.0041 117.701 42.7565 118.382 43.2674 119.072C43.7982 119.775 44.2758 120.643 44.7002 121.675C45.7914 121.382 46.7778 121.332 47.6593 121.527C48.5711 121.714 49.5339 122.15 50.5477 122.836C52.5752 124.208 53.52 125.966 53.3821 128.109C54.6059 127.704 55.6941 127.58 56.6467 127.737C57.6296 127.886 58.7472 128.384 59.9995 129.231C61.2717 130.092 62.0867 131.217 62.4446 132.606C62.8329 133.987 62.6722 135.412 61.9628 136.882L57.9409 145.214C57.6592 145.798 57.5641 146.35 57.6556 146.87C57.7575 147.369 58.0768 147.801 58.6135 148.164C59.1502 148.527 59.9176 148.63 60.9159 148.474L61.077 149.615C58.7252 150.117 56.7542 149.83 55.164 148.754C52.719 147.1 52.2634 144.684 53.797 141.507L57.819 133.175C58.1424 132.505 58.2139 131.865 58.0334 131.256C57.853 130.646 57.4447 130.126 56.8087 129.696C56.1925 129.279 55.4354 129.154 54.5375 129.321C53.6595 129.501 52.9962 130.055 52.5476 130.985L46.9607 142.559L42.4882 139.533L48.5759 126.921C48.8993 126.251 48.9708 125.611 48.7903 125.002C48.6099 124.392 48.2017 123.872 47.5656 123.442C46.9494 123.025 46.1923 122.9 45.2944 123.067C44.4164 123.247 43.7531 123.802 43.3045 124.731L37.7176 136.305L33.2451 133.279L40.4439 118.366C39.5494 117.76 38.676 117.384 37.8238 117.238L37.9854 115.756Z" fill="#00DAF4"/>
<path d="M70.6588 135.474C71.7374 135.333 72.8422 135.423 73.9732 135.745C75.1274 136.074 76.0451 136.485 76.7264 136.977C77.4308 137.476 78.1249 138.147 78.8086 138.988C79.8115 138.378 80.7735 138.03 81.6944 137.944C82.6432 137.841 83.7062 137.957 84.8834 138.292C87.2379 138.962 88.6212 140.326 89.0334 142.384C90.139 141.629 91.1826 141.18 92.164 141.036C93.1733 140.876 94.4051 141.003 95.8593 141.417C97.3366 141.837 98.4298 142.646 99.1389 143.843C99.8759 145.023 100.082 146.413 99.7571 148.013L97.9155 157.079C97.7865 157.714 97.8338 158.263 98.0575 158.725C98.2859 159.163 98.7117 159.471 99.3349 159.648C99.9582 159.826 100.743 159.688 101.689 159.236L102.141 160.26C99.9453 161.451 97.9243 161.784 96.0777 161.258C93.2386 160.45 92.1701 158.317 92.8724 154.86L94.714 145.793C94.8621 145.064 94.769 144.44 94.4347 143.922C94.1004 143.404 93.564 143.04 92.8253 142.83C92.1098 142.626 91.3297 142.74 90.4852 143.171C89.6637 143.609 89.1503 144.333 88.9448 145.345L86.3866 157.94L81.193 156.461L83.9805 142.737C84.1286 142.008 84.0355 141.384 83.7013 140.866C83.367 140.348 82.8305 139.984 82.0919 139.774C81.3763 139.57 80.5963 139.684 79.7517 140.115C78.9302 140.553 78.4168 141.277 78.2114 142.289L75.6531 154.884L70.4595 153.405L73.7559 137.176C72.7171 136.881 71.758 136.794 70.8784 136.917L70.6588 135.474Z" fill="#00DAF4"/>
<path d="M126.825 144.784L126.945 158.787C126.95 159.435 127.111 159.949 127.426 160.33C127.741 160.686 128.223 160.86 128.871 160.852C129.519 160.845 130.26 160.488 131.094 159.782L131.749 160.638C129.844 162.413 127.932 163.312 126.012 163.335C123.732 163.362 122.319 162.311 121.773 160.181C120.543 162.332 118.716 163.422 116.292 163.451C113.533 163.484 111.425 162.621 109.97 160.863C108.515 159.08 107.775 156.809 107.752 154.049C107.728 151.265 108.476 148.964 109.997 147.145C111.541 145.327 113.706 144.401 116.489 144.367C118.625 144.342 120.276 145.174 121.443 146.864L121.426 144.848L126.825 144.784ZM114.292 148.462C113.632 149.814 113.311 151.642 113.331 153.946C113.351 156.25 113.702 158.07 114.386 159.406C115.069 160.742 116.095 161.401 117.463 161.385C118.855 161.368 119.905 160.684 120.613 159.331C121.346 157.954 121.702 156.126 121.683 153.846C121.663 151.566 121.276 149.758 120.52 148.423C119.789 147.064 118.727 146.393 117.335 146.409C115.967 146.426 114.953 147.11 114.292 148.462Z" fill="#00DAF4"/>
<path d="M135.837 143.55C137.74 143.049 139.568 143.185 141.321 143.961C142.044 142.879 142.838 142.051 143.704 141.476C144.566 140.877 145.716 140.388 147.155 140.009C148.617 139.623 149.889 139.783 150.972 140.488C152.073 141.163 152.774 142.303 153.076 143.906L154.787 152.999C154.906 153.636 155.153 154.103 155.525 154.401C155.894 154.675 156.391 154.73 157.018 154.564C157.644 154.399 158.299 153.868 158.983 152.969L159.769 153.653C158.236 155.865 156.542 157.215 154.685 157.705C151.831 158.457 150.077 157.1 149.425 153.633L147.715 144.54C147.577 143.809 147.25 143.301 146.734 143.016C146.218 142.732 145.565 142.693 144.776 142.901C144.01 143.103 143.304 143.624 142.658 144.462C142.035 145.295 141.819 146.219 142.01 147.233L144.386 159.863L139.165 161.24L136.103 144.965C135.059 145.241 134.164 145.662 133.418 146.23L132.684 145.05C133.602 144.362 134.653 143.862 135.837 143.55Z" fill="#00DAF4"/>
<path d="M168.447 135.915L172.888 147.437C173.156 148.131 173.564 148.56 174.112 148.724C174.66 148.888 175.292 148.776 176.01 148.388C176.728 148 177.304 147.31 177.738 146.318C178.172 145.326 178.195 144.326 177.806 143.318L173.235 131.46L177.986 128.893L183.023 141.96C183.256 142.565 183.579 142.972 183.992 143.182C184.396 143.37 184.883 143.309 185.453 143.001C186.023 142.693 186.553 142.015 187.041 140.966L187.922 141.464C186.863 144.012 185.457 145.759 183.705 146.706C181.952 147.653 180.472 147.452 179.263 146.103C178.793 147.466 178.188 148.577 177.448 149.437C176.721 150.263 175.671 151.047 174.298 151.789C172.947 152.519 171.681 152.676 170.499 152.259C169.331 151.808 168.453 150.821 167.866 149.298L163.528 138.045C162.487 138.986 161.812 140.014 161.502 141.129L160.245 140.55C160.598 139.547 161.162 138.593 161.936 137.688C162.73 136.771 163.582 136.068 164.49 135.577C165.419 135.075 166.257 134.866 167.003 134.95C167.741 135.011 168.222 135.333 168.447 135.915Z" fill="#00DAF4"/>
<path d="M196.823 123.994C197.935 122.859 198.543 121.579 198.647 120.152C198.756 118.689 198.537 117.507 197.988 116.604C197.427 115.681 196.815 115.129 196.15 114.949C195.504 114.752 194.815 114.965 194.084 115.588C193.372 116.194 193.036 117.352 193.076 119.061C193.116 120.77 193.722 122.588 194.894 124.516C196.066 126.444 197.317 127.728 198.649 128.368C199.981 129.008 201.222 128.838 202.373 127.857C204.127 126.363 205.148 124.325 205.438 121.745L206.542 121.645C206.593 123.281 206.313 124.874 205.702 126.422C205.077 127.95 204.126 129.259 202.847 130.348C200.673 132.2 198.451 132.879 196.182 132.384C193.9 131.869 192.067 130.473 190.684 128.196C189.3 125.92 188.826 123.429 189.261 120.723C189.703 117.982 191.147 115.568 193.596 113.483C195.203 112.113 196.719 111.46 198.144 111.522C199.569 111.585 200.673 112.263 201.459 113.555C202.244 114.847 202.462 116.482 202.111 118.461C201.767 120.404 200.764 122.084 199.101 123.5C198.535 123.983 197.943 124.378 197.326 124.686L196.823 123.994Z" fill="#00DAF4"/>
<path d="M198.389 102.143C198.38 101.061 198.581 99.9528 198.991 98.8187C199.417 97.6663 199.965 96.6981 200.636 95.9141C201.323 95.1118 202.023 94.6213 202.737 94.4426C203.435 94.2455 203.984 94.3866 204.383 94.8659L218.052 111.264C218.467 111.762 218.899 112.04 219.347 112.098C219.781 112.137 220.208 111.911 220.63 111.419C221.051 110.926 221.312 110.094 221.412 108.921L222.387 109.092C222.26 111.897 221.573 114.028 220.324 115.487C218.405 117.73 216.316 117.496 214.057 114.786L200.572 98.609C199.929 99.8699 199.65 101.087 199.735 102.261L198.389 102.143Z" fill="#00DAF4"/>
<path d="M94.4413 107.23L67.8813 98.5261V93.9181L94.4413 85.3421V89.7581L72.6813 96.1581L94.4413 102.814V107.23ZM102.145 123.166L120.129 69.2781H125.057L107.073 123.166H102.145ZM132.759 107.23V102.814L154.519 96.2221L132.759 89.7581V85.3421L159.319 93.9181V98.5261L132.759 107.23Z" fill="#00DAF4"/>
</svg>
